HIERARCHY
ROOT Hips
{
  OFFSET 0.420239 99.5597 3.929
  CHANNELS 6 Xposition Yposition Zposition Zrotation Xrotation Yrotation
  JOINT LeftUpLeg
  {
    OFFSET 8.91 -6.27 -2.145
    CHANNELS 6 Xposition Yposition Zposition Zrotation Xrotation Yrotation
    JOINT LeftUpLegRoll
    {
      OFFSET 0 -22.7323 0
      CHANNELS 6 Xposition Yposition Zposition Zrotation Xrotation Yrotation
      JOINT LeftLeg
      {
        OFFSET 0 -22.1464 0
        CHANNELS 6 Xposition Yposition Zposition Zrotation Xrotation Yrotation
        JOINT LeftLegRoll
        {
          OFFSET 0 -22.0919 0
          CHANNELS 6 Xposition Yposition Zposition Zrotation Xrotation Yrotation
          JOINT LeftFoot
          {
            OFFSET 0 -18.609 0
            CHANNELS 6 Xposition Yposition Zposition Zrotation Xrotation Yrotation
            JOINT LeftToeBase
            {
              OFFSET 0 -6.26232 12.9547
              CHANNELS 6 Xposition Yposition Zposition Zrotation Xrotation Yrotation
              End Site
              {
                OFFSET 0 0 5.96686
              }
            }
          }
        }
      }
    }
  }
  JOINT RightUpLeg
  {
    OFFSET -8.91 -6.27 -2.145
    CHANNELS 6 Xposition Yposition Zposition Zrotation Xrotation Yrotation
    JOINT RightUpLegRoll
    {
      OFFSET 0 -22.7323 0
      CHANNELS 6 Xposition Yposition Zposition Zrotation Xrotation Yrotation
      JOINT RightLeg
      {
        OFFSET 0 -22.1464 0
        CHANNELS 6 Xposition Yposition Zposition Zrotation Xrotation Yrotation
        JOINT RightLegRoll
        {
          OFFSET 0 -22.0919 0
          CHANNELS 6 Xposition Yposition Zposition Zrotation Xrotation Yrotation
          JOINT RightFoot
          {
            OFFSET 0 -18.609 0
            CHANNELS 6 Xposition Yposition Zposition Zrotation Xrotation Yrotation
            JOINT RightToeBase
            {
              OFFSET 0 -6.26232 12.9547
              CHANNELS 6 Xposition Yposition Zposition Zrotation Xrotation Yrotation
              End Site
              {
                OFFSET 0 0.000942417 5.96686
              }
            }
          }
        }
      }
    }
  }
  JOINT Spine
  {
    OFFSET 0 7.43174 -2.06162
    CHANNELS 6 Xposition Yposition Zposition Zrotation Xrotation Yrotation
    JOINT Spine1
    {
      OFFSET -1.68772e-005 12.1899 -1.41951
      CHANNELS 6 Xposition Yposition Zposition Zrotation Xrotation Yrotation
      JOINT Spine2
      {
        OFFSET 0 11.8846 -1.0903
        CHANNELS 6 Xposition Yposition Zposition Zrotation Xrotation Yrotation
        JOINT Spine3
        {
          OFFSET 1.84329e-005 10.5137 1.04001
          CHANNELS 6 Xposition Yposition Zposition Zrotation Xrotation Yrotation
          JOINT LeftShoulder
          {
            OFFSET 7 4.56855 2.0674
            CHANNELS 6 Xposition Yposition Zposition Zrotation Xrotation Yrotation
            JOINT LeftArm
            {
              OFFSET 10.7073 0 0
              CHANNELS 6 Xposition Yposition Zposition Zrotation Xrotation Yrotation
              JOINT LeftArmRoll
              {
                OFFSET 15.2612 0 0
                CHANNELS 6 Xposition Yposition Zposition Zrotation Xrotation Yrotation
                JOINT LeftForeArm
                {
                  OFFSET 12.0443 0 0
                  CHANNELS 6 Xposition Yposition Zposition Zrotation Xrotation Yrotation
                  JOINT LeftForeArmRoll
                  {
                    OFFSET 16.3277 0 0
                    CHANNELS 6 Xposition Yposition Zposition Zrotation Xrotation Yrotation
                    JOINT LeftHand
                    {
                      OFFSET 10.3694 0 0
                      CHANNELS 6 Xposition Yposition Zposition Zrotation Xrotation Yrotation
                      JOINT LeftHandThumb1
                      {
                        OFFSET 4.34876 -0.798502 4.28243
                        CHANNELS 6 Xposition Yposition Zposition Zrotation Xrotation Yrotation
                        JOINT LeftHandThumb2
                        {
                          OFFSET 2.51259 -0.536099 0.707454
                          CHANNELS 6 Xposition Yposition Zposition Zrotation Xrotation Yrotation
                          JOINT LeftHandThumb3
                          {
                            OFFSET 2.54314 0 0
                            CHANNELS 6 Xposition Yposition Zposition Zrotation Xrotation Yrotation
                            JOINT LeftHandThumb4
                            {
                              OFFSET 2.66675 0 0
                              CHANNELS 6 Xposition Yposition Zposition Zrotation Xrotation Yrotation
                              End Site
                              {
                                OFFSET 0 0 0
                              }
                            }
                          }
                        }
                      }
                      JOINT LeftHandIndex1
                      {
                        OFFSET 8.82198 0.199729 3.47167
                        CHANNELS 6 Xposition Yposition Zposition Zrotation Xrotation Yrotation
                        JOINT LeftHandIndex2
                        {
                          OFFSET 4.22532 0 -0.000262656
                          CHANNELS 6 Xposition Yposition Zposition Zrotation Xrotation Yrotation
                          JOINT LeftHandIndex3
                          {
                            OFFSET 2.65394 0 -0.00016516
                            CHANNELS 6 Xposition Yposition Zposition Zrotation Xrotation Yrotation
                            JOINT LeftHandIndex4
                            {
                              OFFSET 1.95822 0 -0.00012217
                              CHANNELS 6 Xposition Yposition Zposition Zrotation Xrotation Yrotation
                              End Site
                              {
                                OFFSET 0 0 0
                              }
                            }
                          }
                        }
                      }
                      JOINT LeftHandMiddle1
                      {
                        OFFSET 8.80988 0.50089 1.30468
                        CHANNELS 6 Xposition Yposition Zposition Zrotation Xrotation Yrotation
                        JOINT LeftHandMiddle2
                        {
                          OFFSET 4.86325 0 0
                          CHANNELS 6 Xposition Yposition Zposition Zrotation Xrotation Yrotation
                          JOINT LeftHandMiddle3
                          {
                            OFFSET 2.76524 0 0
                            CHANNELS 6 Xposition Yposition Zposition Zrotation Xrotation Yrotation
                            JOINT LeftHandMiddle4
                            {
                              OFFSET 2.00563 0 0
                              CHANNELS 6 Xposition Yposition Zposition Zrotation Xrotation Yrotation
                              End Site
                              {
                                OFFSET 0 0 0
                              }
                            }
                          }
                        }
                      }
                      JOINT LeftHandRing1
                      {
                        OFFSET 8.89376 0.37992 -0.793159
                        CHANNELS 6 Xposition Yposition Zposition Zrotation Xrotation Yrotation
                        JOINT LeftHandRing2
                        {
                          OFFSET 4.53776 0 -0.000282138
                          CHANNELS 6 Xposition Yposition Zposition Zrotation Xrotation Yrotation
                          JOINT LeftHandRing3
                          {
                            OFFSET 2.30453 0 -0.000143448
                            CHANNELS 6 Xposition Yposition Zposition Zrotation Xrotation Yrotation
                            JOINT LeftHandRing4
                            {
                              OFFSET 1.92335 0 -0.00012044
                              CHANNELS 6 Xposition Yposition Zposition Zrotation Xrotation Yrotation
                              End Site
                              {
                                OFFSET 0 0 0
                              }
                            }
                          }
                        }
                      }
                      JOINT LeftHandPinky1
                      {
                        OFFSET 8.88227 -0.313027 -2.49036
                        CHANNELS 6 Xposition Yposition Zposition Zrotation Xrotation Yrotation
                        JOINT LeftHandPinky2
                        {
                          OFFSET 3.0441 0 0
                          CHANNELS 6 Xposition Yposition Zposition Zrotation Xrotation Yrotation
                          JOINT LeftHandPinky3
                          {
                            OFFSET 1.9745 0 0
                            CHANNELS 6 Xposition Yposition Zposition Zrotation Xrotation Yrotation
                            JOINT LeftHandPinky4
                            {
                              OFFSET 1.66661 0 0
                              CHANNELS 6 Xposition Yposition Zposition Zrotation Xrotation Yrotation
                              End Site
                              {
                                OFFSET 0 0 0
                              }
                            }
                          }
                        }
                      }
                    }
                  }
                }
              }
            }
          }
          JOINT RightShoulder
          {
            OFFSET -7 4.56855 2.0673
            CHANNELS 6 Xposition Yposition Zposition Zrotation Xrotation Yrotation
            JOINT RightArm
            {
              OFFSET -10.7073 0 0
              CHANNELS 6 Xposition Yposition Zposition Zrotation Xrotation Yrotation
              JOINT RightArmRoll
              {
                OFFSET -15.2612 0 0
                CHANNELS 6 Xposition Yposition Zposition Zrotation Xrotation Yrotation
                JOINT RightForeArm
                {
                  OFFSET -12.0444 0 0
                  CHANNELS 6 Xposition Yposition Zposition Zrotation Xrotation Yrotation
                  JOINT RightForeArmRoll
                  {
                    OFFSET -16.3276 0 0
                    CHANNELS 6 Xposition Yposition Zposition Zrotation Xrotation Yrotation
                    JOINT RightHand
                    {
                      OFFSET -10.3694 0 0
                      CHANNELS 6 Xposition Yposition Zposition Zrotation Xrotation Yrotation
                      JOINT RightHandThumb1
                      {
                        OFFSET -4.34838 -0.798501 4.28282
                        CHANNELS 6 Xposition Yposition Zposition Zrotation Xrotation Yrotation
                        JOINT RightHandThumb2
                        {
                          OFFSET -2.51253 -0.536099 0.707679
                          CHANNELS 6 Xposition Yposition Zposition Zrotation Xrotation Yrotation
                          JOINT RightHandThumb3
                          {
                            OFFSET -2.54159 0 0.0888232
                            CHANNELS 6 Xposition Yposition Zposition Zrotation Xrotation Yrotation
                            JOINT RightHandThumb4
                            {
                              OFFSET -2.66512 0 0.0931403
                              CHANNELS 6 Xposition Yposition Zposition Zrotation Xrotation Yrotation
                              End Site
                              {
                                OFFSET 0 0 0
                              }
                            }
                          }
                        }
                      }
                      JOINT RightHandIndex1
                      {
                        OFFSET -8.82167 0.199732 3.47246
                        CHANNELS 6 Xposition Yposition Zposition Zrotation Xrotation Yrotation
                        JOINT RightHandIndex2
                        {
                          OFFSET -4.22532 0 0.0001146
                          CHANNELS 6 Xposition Yposition Zposition Zrotation Xrotation Yrotation
                          JOINT RightHandIndex3
                          {
                            OFFSET -2.65394 0 7.19601e-005
                            CHANNELS 6 Xposition Yposition Zposition Zrotation Xrotation Yrotation
                            JOINT RightHandIndex4
                            {
                              OFFSET -1.95822 0 5.30956e-005
                              CHANNELS 6 Xposition Yposition Zposition Zrotation Xrotation Yrotation
                              End Site
                              {
                                OFFSET 0 0 0
                              }
                            }
                          }
                        }
                      }
                      JOINT RightHandMiddle1
                      {
                        OFFSET -8.80976 0.500893 1.30547
                        CHANNELS 6 Xposition Yposition Zposition Zrotation Xrotation Yrotation
                        JOINT RightHandMiddle2
                        {
                          OFFSET -4.86325 0 0.000131881
                          CHANNELS 6 Xposition Yposition Zposition Zrotation Xrotation Yrotation
                          JOINT RightHandMiddle3
                          {
                            OFFSET -2.76524 0 7.49854e-005
                            CHANNELS 6 Xposition Yposition Zposition Zrotation Xrotation Yrotation
                            JOINT RightHandMiddle4
                            {
                              OFFSET -2.00563 0 5.43888e-005
                              CHANNELS 6 Xposition Yposition Zposition Zrotation Xrotation Yrotation
                              End Site
                              {
                                OFFSET 0 0 0
                              }
                            }
                          }
                        }
                      }
                      JOINT RightHandRing1
                      {
                        OFFSET -8.89383 0.379922 -0.792364
                        CHANNELS 6 Xposition Yposition Zposition Zrotation Xrotation Yrotation
                        JOINT RightHandRing2
                        {
                          OFFSET -4.53776 0 0.000123049
                          CHANNELS 6 Xposition Yposition Zposition Zrotation Xrotation Yrotation
                          JOINT RightHandRing3
                          {
                            OFFSET -2.30453 0 6.24859e-005
                            CHANNELS 6 Xposition Yposition Zposition Zrotation Xrotation Yrotation
                            JOINT RightHandRing4
                            {
                              OFFSET -1.92335 0 5.21537e-005
                              CHANNELS 6 Xposition Yposition Zposition Zrotation Xrotation Yrotation
                              End Site
                              {
                                OFFSET 0 0 0
                              }
                            }
                          }
                        }
                      }
                      JOINT RightHandPinky1
                      {
                        OFFSET -8.8825 -0.313025 -2.48956
                        CHANNELS 6 Xposition Yposition Zposition Zrotation Xrotation Yrotation
                        JOINT RightHandPinky2
                        {
                          OFFSET -3.0478 0 8.26466e-005
                          CHANNELS 6 Xposition Yposition Zposition Zrotation Xrotation Yrotation
                          JOINT RightHandPinky3
                          {
                            OFFSET -1.9769 0 5.36145e-005
                            CHANNELS 6 Xposition Yposition Zposition Zrotation Xrotation Yrotation
                            JOINT RightHandPinky4
                            {
                              OFFSET -1.66864 0 4.5245e-005
                              CHANNELS 6 Xposition Yposition Zposition Zrotation Xrotation Yrotation
                              End Site
                              {
                                OFFSET 0 0 0
                              }
                            }
                          }
                        }
                      }
                    }
                  }
                }
              }
            }
          }
          JOINT Neck
          {
            OFFSET 0 11.5156 1.94702
            CHANNELS 6 Xposition Yposition Zposition Zrotation Xrotation Yrotation
            JOINT Head
            {
              OFFSET -1.26215e-005 11.0733 1.65432
              CHANNELS 6 Xposition Yposition Zposition Zrotation Xrotation Yrotation
              End Site
              {
                OFFSET 0 17.7047 0
              }
            }
          }
        }
      }
    }
  }
}
MOTION
Frames:	2
Frame Time:	0.0333333
0.420239 99.5597 3.929 -0.256411 11.3165 7.07929 8.91 -6.27 -2.145 3.99714 15.4061 10.8096 -8.88178e-015 -22.7323 -4.71169e-007 1.00733e-016 -8.34666e-016 13.7631 -1.24345e-014 -22.1464 5.17666e-008 2.27352e-008 31.1796 -0.883706 -8.88178e-015 -22.0919 1.36431e-008 1.25765e-019 2.97059e-017 -0.48514 -1.42109e-014 -18.609 1.69696e-008 2.96154 -7.74552 0.200525 5.32907e-015 -6.26232 12.9547 -3.74215e-007 -1.08517e-007 -7.08753e-016 -8.91 -6.27 -2.145 -0.446375 -39.6351 1.23232 -2.71633e-006 -22.7323 -4.51374e-007 2.83881e-018 -1.41106e-016 2.30507 -4.24549e-013 -22.1464 1.4554e-008 -8.9235e-008 16.5837 0.864145 9.19562e-007 -22.0919 4.09714e-008 1.35201e-018 -9.73901e-017 1.59071 -3.606e-013 -18.609 -7.98564e-010 1.77577 -13.7138 0.208954 -6.4416e-011 -6.26232 12.9547 0.00291266 8.8385e-008 -4.49309e-012 2.32301e-006 7.43174 -2.06162 0.895227 0.593547 -3.77514 -1.68772e-005 12.1899 -1.41951 2.64691 1.07277 -6.18031 -3.87879e-006 11.8846 -1.0903 2.63863 1.11006 -6.17793 1.84329e-005 10.5137 1.04001 2.62605 1.14619 -6.17728 7 4.56855 2.0674 -22.9744 0 23.6906 10.7073 -5.08749e-012 -5.32907e-015 -38.4878 -0.744023 -38.4282 15.2612 3.95062e-012 1.16365e-008 -0 21.9852 0 12.0443 -1.25056e-012 2.87898e-009 5.87756 -6.00708 -135.471 16.3277 2.84217e-012 -1.18649e-008 -0 12.3467 0 10.3694 3.12639e-013 2.29894e-008 7.52102 0.401423 6.10161 4.34876 -0.798502 4.28243 0.000223847 6.7711e-005 0.00031712 2.51259 -0.536099 0.707454 -9.83015 -0.341591 1.97062 2.54314 9.9476e-013 9.34198e-006 0.000468615 0 0 2.66675 -1.27898e-012 -8.21025e-006 -0 0 0 8.82198 0.199729 3.47167 -0.00029724 -1.03799e-005 -2.69246e-011 4.22532 4.83737e-011 -0.000262656 -0.000645732 0 0 2.65394 2.98712e-011 -0.00016516 -2.40026e-006 0 0 1.95822 2.2311e-011 -0.00012217 -0 0 0 8.80988 0.50089 1.30468 9.93669e-006 3.46997e-007 1.99644 4.86325 1.10845e-012 6.11217e-012 -2.79697e-005 0 0 2.76524 3.69482e-013 -1.91784e-007 -7.64487e-006 0 0 2.00563 -8.52651e-013 -1.13863e-006 -0 0 0 8.89376 0.37992 -0.793159 -2.64236e-005 -9.22734e-007 1.99644 4.53776 8.2423e-013 -0.000282138 -3.80537e-011 0 0 2.30453 0 -0.000143448 5.67445e-005 0 0 1.92335 -4.26326e-013 -0.00012044 -0 0 0 8.88227 -0.313027 -2.49036 0.000746907 2.60826e-005 2 3.0441 -2.04636e-012 1.33227e-015 -4.51779e-006 0 0 1.9745 2.84217e-013 -1.43329e-007 6.02174e-005 0 0 1.66661 1.64846e-012 7.91347e-007 -0 0 0 -7 4.56855 2.0673 0.429399 -3.59058e-016 -3.0108 -10.7073 5.20117e-012 2.04281e-014 54.4253 1.92235 -35.8988 -15.2612 -6.33804e-012 1.86659e-008 3.34007e-015 34.6925 3.34007e-015 -12.0444 -8.46967e-012 -7.98782e-009 -4.94145 1.3495 74.7625 -16.3276 -1.11982e-011 -2.36264e-008 -7.10463e-006 7.55475 -2.7325e-006 -10.3694 -8.52651e-014 1.64166e-008 -8.95324 0.212867 -2.71835 -4.34838 -0.798501 4.28282 0.000323672 -2.9728e-005 0.000141467 -2.51253 -0.536099 0.707679 10.4896 -0.364257 -1.96656 -2.54159 2.76827e-011 0.0888232 0.000199292 0 -0 -2.66512 1.86731e-011 0.0931403 0 0 -0 -8.82167 0.199732 3.47246 -1.7699e-006 6.18061e-008 1.19271e-015 -4.22532 2.47269e-012 0.0001146 0.00064866 0 -0 -2.65394 1.39266e-012 7.19601e-005 3.41513e-006 0 -0 -1.95822 1.36424e-012 5.30956e-005 0 0 -0 -8.80976 0.500893 1.30547 -1.19613e-005 4.17699e-007 4.37326e-014 -4.86325 -1.3074e-012 0.000131881 0.000100029 0 -0 -2.76524 1.76215e-012 7.49854e-005 1.16389e-005 0 -0 -2.00563 0 5.43888e-005 0 0 -0 -8.89383 0.379922 -0.792364 -1.60892e-005 5.61847e-007 7.91163e-014 -4.53776 4.09273e-012 0.000123049 3.64733e-005 0 -0 -2.30453 4.12115e-012 6.24859e-005 6.4473e-006 0 -0 -1.92335 7.38964e-013 5.21537e-005 0 0 -0 -8.8825 -0.313025 -2.48956 0.00122212 -4.26773e-005 4.55154e-010 -3.0478 -6.65921e-011 8.26466e-005 3.39943e-005 0 -0 -1.9769 -3.85683e-011 5.36145e-005 -2.11298e-005 0 -0 -1.66864 -3.54419e-011 4.5245e-005 0 0 -0 2.32301e-006 11.5156 1.94702 -22.2042 -13.8912 2.90583 -1.26215e-005 11.0733 1.65432 10.9499 1.10659 -3.87453 
1.05298 98.2663 12.6903 0.467089 11.4529 6.48444 8.91 -6.27 -2.145 6.021 13.6966 11.1559 -8.88178e-015 -22.7323 -4.71169e-007 8.66468e-017 -7.74898e-016 12.7603 -1.24345e-014 -22.1464 5.17666e-008 -9.90586e-008 51.1316 -2.16034 -8.88178e-015 -22.0919 1.36431e-008 2.44859e-018 1.31053e-016 -2.14076 -1.42109e-014 -18.609 1.69696e-008 5.38475 -6.56934 0.30926 5.32907e-015 -6.26232 12.9547 -3.74215e-007 -1.08517e-007 -7.08753e-016 -8.91 -6.27 -2.145 -1.32843 -39.2994 -0.0589721 -2.71633e-006 -22.7323 -4.51374e-007 1.02523e-018 -8.48095e-017 1.38518 -4.24549e-013 -22.1464 1.4554e-008 -1.04908e-007 17.3262 0.0637679 9.19562e-007 -22.0919 4.09714e-008 7.96523e-020 -2.36409e-017 0.386088 -3.606e-013 -18.609 -7.98564e-010 1.15335 -15.8599 0.156022 -6.4416e-011 -6.26232 12.9547 0.00291266 8.8385e-008 -4.49309e-012 2.32301e-006 7.43174 -2.06162 1.05488 0.712965 -3.02207 -1.68772e-005 12.1899 -1.41951 2.7552 1.29465 -5.28577 -3.87879e-006 11.8846 -1.0903 2.75068 1.32139 -5.28192 1.84329e-005 10.5137 1.04001 2.74348 1.34769 -5.2794 7 4.56855 2.0674 -23.9674 0 20.8455 10.7073 -5.08749e-012 -5.32907e-015 -36.3574 1.12685 -26.4124 15.2612 3.95062e-012 1.16365e-008 -0 26.8877 0 12.0443 -1.25056e-012 2.87898e-009 6.75869 -6.39418 -133.22 16.3277 2.84217e-012 -1.18649e-008 -0 13.6633 0 10.3694 3.12639e-013 2.29894e-008 8.29506 0.526014 7.24427 4.34876 -0.798502 4.28243 0.000223847 6.7711e-005 0.00031712 2.51259 -0.536099 0.707454 -9.83015 -0.341591 1.97062 2.54314 9.9476e-013 9.34198e-006 0.000468615 0 0 2.66675 -1.27898e-012 -8.21025e-006 -0 0 0 8.82198 0.199729 3.47167 -0.00029724 -1.03799e-005 -2.69246e-011 4.22532 4.83737e-011 -0.000262656 -0.000645732 0 0 2.65394 2.98712e-011 -0.00016516 -2.40026e-006 0 0 1.95822 2.2311e-011 -0.00012217 -0 0 0 8.80988 0.50089 1.30468 9.93669e-006 3.46997e-007 1.99644 4.86325 1.10845e-012 6.11217e-012 -2.79697e-005 0 0 2.76524 3.69482e-013 -1.91784e-007 -7.64487e-006 0 0 2.00563 -8.52651e-013 -1.13863e-006 -0 0 0 8.89376 0.37992 -0.793159 -2.64236e-005 -9.22734e-007 1.99644 4.53776 8.2423e-013 -0.000282138 -3.80537e-011 0 0 2.30453 0 -0.000143448 5.67445e-005 0 0 1.92335 -4.26326e-013 -0.00012044 -0 0 0 8.88227 -0.313027 -2.49036 0.000746907 2.60826e-005 2 3.0441 -2.04636e-012 1.33227e-015 -4.51779e-006 0 0 1.9745 2.84217e-013 -1.43329e-007 6.02174e-005 0 0 1.66661 1.64846e-012 7.91347e-007 -0 0 0 -7 4.56855 2.0673 2.23239 -4.12135e-016 -3.42631 -10.7073 5.20117e-012 2.04281e-014 51.9277 1.56217 -33.2971 -15.2612 -6.33804e-012 1.86659e-008 3.19828e-015 32.8908 3.19828e-015 -12.0444 -8.46967e-012 -7.98782e-009 -4.90118 1.36531 74.4714 -16.3276 -1.11982e-011 -2.36264e-008 -7.10314e-006 7.58576 -2.7327e-006 -10.3694 -8.52651e-014 1.64166e-008 -7.79995 0.270702 -3.96919 -4.34838 -0.798501 4.28282 0.000323672 -2.9728e-005 0.000141467 -2.51253 -0.536099 0.707679 10.4896 -0.364257 -1.96656 -2.54159 2.76827e-011 0.0888232 0.000199292 0 -0 -2.66512 1.86731e-011 0.0931403 0 0 -0 -8.82167 0.199732 3.47246 -1.7699e-006 6.18061e-008 1.19271e-015 -4.22532 2.47269e-012 0.0001146 0.00064866 0 -0 -2.65394 1.39266e-012 7.19601e-005 3.41513e-006 0 -0 -1.95822 1.36424e-012 5.30956e-005 0 0 -0 -8.80976 0.500893 1.30547 -1.19613e-005 4.17699e-007 4.37326e-014 -4.86325 -1.3074e-012 0.000131881 0.000100029 0 -0 -2.76524 1.76215e-012 7.49854e-005 1.16389e-005 0 -0 -2.00563 0 5.43888e-005 0 0 -0 -8.89383 0.379922 -0.792364 -1.60892e-005 5.61847e-007 7.91163e-014 -4.53776 4.09273e-012 0.000123049 3.64733e-005 0 -0 -2.30453 4.12115e-012 6.24859e-005 6.4473e-006 0 -0 -1.92335 7.38964e-013 5.21537e-005 0 0 -0 -8.8825 -0.313025 -2.48956 0.00122212 -4.26773e-005 4.55154e-010 -3.0478 -6.65921e-011 8.26466e-005 3.39943e-005 0 -0 -1.9769 -3.85683e-011 5.36145e-005 -2.11298e-005 0 -0 -1.66864 -3.54419e-011 4.5245e-005 0 0 -0 2.32301e-006 11.5156 1.94702 -21.5217 -14.7825 1.69051 -1.26215e-005 11.0733 1.65432 9.47357 1.20108 -4.3533 
